<?xml version="1.0" standalone="no"?>
<!DOCTYPE svg PUBLIC "-//W3C//DTD SVG 20010904//EN"
 "http://www.w3.org/TR/2001/REC-SVG-20010904/DTD/svg10.dtd">
<svg version="1.0" xmlns="http://www.w3.org/2000/svg"
 width="700.000000pt" height="700.000000pt" viewBox="0 0 700.000000 700.000000"
 preserveAspectRatio="xMidYMid meet">
<metadata>
Created by potrace 1.11, written by Peter Selinger 2001-2013
</metadata>
<g transform="translate(0.000000,700.000000) scale(0.100000,-0.100000)"
fill="#000000" stroke="none">
<path d="M3408 6800 c-203 -36 -367 -234 -372 -448 l-2 -62 -330 -218 c-181
-119 -460 -302 -619 -407 -159 -104 -365 -240 -458 -301 l-169 -111 -41 12
c-23 7 -73 11 -112 10 -204 -8 -358 -118 -430 -310 -21 -55 -24 -79 -22 -168
2 -98 4 -108 41 -182 28 -56 58 -97 106 -144 l66 -66 0 -912 -1 -913 -35 -24
c-84 -57 -152 -170 -177 -296 -5 -29 -5 -116 2 -153 29 -172 164 -319 335
-368 61 -17 176 -19 227 -4 l43 13 622 -410 c343 -226 705 -464 805 -530 155
-102 188 -128 212 -169 136 -220 409 -292 631 -167 65 36 138 108 171 168 27
48 -31 9 1047 718 l592 390 43 -12 c53 -16 179 -14 232 4 155 50 264 158 315
310 19 54 21 81 18 160 -4 79 -10 106 -37 164 -35 79 -81 138 -138 180 l-39
29 1 919 c0 909 0 920 20 930 36 19 111 107 142 165 99 188 60 412 -96 559
-39 37 -157 100 -206 110 -58 12 -170 11 -212 -1 l-41 -12 -139 91 c-76 50
-235 155 -353 232 -224 147 -584 384 -900 592 l-184 121 -3 72 c-6 193 -133
362 -318 424 -59 20 -171 27 -237 15z m172 -55 c183 -27 337 -222 328 -415
l-3 -65 320 -212 c347 -229 645 -425 1048 -690 l258 -170 48 13 c192 49 387
-38 471 -211 90 -183 41 -392 -120 -512 l-52 -38 1 -885 c0 -487 0 -913 1
-947 l0 -61 50 -36 c103 -74 161 -189 163 -321 4 -274 -245 -470 -510 -402
l-52 14 -118 -77 c-65 -42 -246 -161 -403 -265 -157 -103 -343 -226 -415 -273
-645 -423 -714 -471 -731 -504 -104 -206 -372 -283 -574 -165 -48 28 -125 109
-150 158 -22 41 -74 78 -750 521 -63 41 -261 172 -440 289 -179 118 -360 238
-403 266 l-79 51 -46 -15 c-77 -24 -204 -13 -283 25 -233 113 -307 404 -155
610 25 33 65 74 90 91 l46 32 0 62 c1 80 1 1774 0 1809 0 20 -12 35 -50 62
-128 92 -195 275 -155 426 35 133 115 222 260 288 6 3 -2 -8 -16 -24 -48 -52
-60 -92 -60 -183 2 -114 74 -206 173 -218 29 -4 53 -15 75 -35 27 -26 39 -30
97 -32 36 -1 66 0 66 3 -1 3 -18 26 -40 50 l-39 45 29 29 c36 37 60 105 60
172 0 65 -15 110 -51 157 -24 30 -26 37 -11 35 9 0 150 87 312 194 298 196
432 284 1009 664 l319 210 -6 58 c-10 114 54 260 148 335 52 43 138 82 198 91
49 7 67 7 142 -4z m-2213 -1627 c23 -19 43 -71 43 -113 0 -43 -24 -103 -48
-121 -23 -18 -78 -17 -107 2 -62 40 -59 192 5 237 25 18 83 15 107 -5z"/>
<path d="M3095 5887 c-94 -61 -267 -176 -385 -253 -118 -78 -363 -240 -545
-359 -181 -120 -355 -234 -385 -253 -86 -55 -91 -61 -78 -85 6 -11 13 -55 17
-96 l6 -75 330 -217 c182 -120 413 -272 515 -339 102 -67 272 -178 377 -248
106 -70 274 -180 372 -245 l180 -118 38 24 c21 13 187 122 368 242 1126 742
1360 895 1367 895 4 0 7 26 7 58 0 31 5 73 11 92 5 19 10 40 10 47 0 7 -33 34
-72 60 -40 25 -199 130 -353 231 -154 102 -365 241 -470 310 -104 69 -296 194
-425 279 -129 86 -239 157 -246 160 -6 2 -26 -5 -45 -16 -100 -58 -279 -58
-376 -1 -19 11 -37 20 -41 20 -4 0 -84 -51 -177 -113z m1024 -207 c1105 -728
1122 -740 1116 -759 -3 -10 -7 -42 -10 -71 -2 -29 -5 -54 -7 -55 -3 -3 -281
-185 -783 -515 -165 -108 -441 -290 -614 -404 -266 -175 -318 -206 -335 -198
-12 5 -156 98 -321 207 -295 195 -468 308 -775 510 -384 252 -605 398 -608
400 -2 2 -5 29 -7 60 -3 31 -7 65 -10 75 -3 10 0 20 8 23 7 3 141 89 298 193
470 310 947 624 1103 726 49 32 95 58 102 58 7 0 34 -10 61 -22 39 -17 68 -21
158 -22 97 -1 117 2 170 24 56 24 62 25 86 10 14 -8 180 -116 368 -240z"/>
<path d="M5593 5192 l-23 -3 0 -225 0 -224 153 0 154 0 -1 48 -1 47 -96 3 -97
3 0 170 c-1 94 -3 174 -6 177 -7 6 -51 8 -83 4z"/>
<path d="M1495 4450 l-70 -39 0 -908 c0 -499 4 -914 8 -920 6 -10 -25 -13
-147 -13 l-156 0 0 -50 c0 -56 -3 -54 98 -50 29 1 42 -3 43 -12 0 -7 2 -87 2
-178 l2 -165 53 0 c40 -1 52 3 53 15 1 8 1 87 1 176 0 158 1 161 22 161 128 2
124 1 121 33 -3 36 3 37 41 8 49 -38 82 -80 116 -148 30 -60 33 -73 33 -160 0
-52 -4 -111 -8 -131 l-8 -37 211 -138 c116 -77 394 -260 618 -407 224 -148
454 -299 511 -337 l104 -68 38 49 c38 48 132 119 156 119 10 0 13 208 13 1035
l0 1036 -252 166 c-139 91 -329 216 -423 278 -93 61 -269 177 -390 257 -561
370 -700 461 -710 463 -5 2 -42 -14 -80 -35z m346 -203 c145 -95 356 -234 469
-309 217 -143 422 -278 765 -503 116 -75 212 -139 214 -141 3 -3 5 -1871 2
-1975 -1 -20 -14 -35 -56 -64 -31 -21 -67 -51 -80 -67 l-25 -30 -83 54 c-45
29 -203 133 -352 231 -148 98 -420 277 -603 398 -301 198 -333 221 -326 241
11 35 13 142 3 195 -5 26 -25 80 -44 119 -39 80 -119 162 -198 204 l-47 25 0
875 0 875 38 21 c20 12 42 22 48 23 7 1 130 -77 275 -172z"/>
<path d="M5390 4466 c-19 -13 -179 -119 -355 -234 -176 -116 -419 -275 -540
-355 -121 -80 -361 -238 -533 -351 l-312 -205 2 -1032 3 -1032 37 -21 c60 -33
89 -58 128 -108 l37 -46 319 210 c176 115 414 272 529 348 116 76 297 196 403
266 l194 127 -8 31 c-4 17 -9 69 -10 115 -6 171 80 307 243 385 l48 24 0 913
0 912 -45 21 c-25 12 -56 29 -70 39 -31 21 -28 22 -70 -7z m87 -67 l43 -21 0
-878 0 -878 -55 -27 c-107 -55 -199 -177 -229 -305 -14 -59 -15 -167 -1 -209
7 -22 25 -9 -700 -486 -93 -61 -276 -181 -405 -266 -129 -85 -241 -158 -247
-163 -8 -4 -27 8 -51 32 -22 22 -58 52 -80 67 -31 20 -42 35 -43 54 -3 102 -1
1972 2 1975 2 2 92 61 199 131 227 149 509 335 805 530 483 319 708 465 713
465 3 0 25 -9 49 -21z"/>
<path d="M5642 2561 c-64 -22 -87 -42 -118 -102 -19 -39 -23 -59 -21 -125 3
-86 19 -129 65 -171 69 -64 192 -73 295 -22 l37 19 0 111 0 110 -97 -3 -98 -3
0 -45 0 -45 45 -5 c25 -3 44 -8 43 -12 -2 -5 -3 -19 -3 -33 0 -24 -3 -25 -59
-25 -49 0 -62 4 -83 25 -52 51 -48 185 5 220 49 32 142 21 190 -23 44 -39 47
-37 47 31 l0 65 -45 21 c-61 29 -140 33 -203 12z"/>
</g>
</svg>
